<svg width="240" height="240" viewBox="0 0 240 240" fill="none" xmlns="http://www.w3.org/2000/svg">
<circle cx="120" cy="120" r="120" fill="white"/>
<path d="M120 60C112.583 60 105.333 62.1993 99.1661 66.3199C92.9993 70.4404 88.1928 76.2971 85.3545 83.1494C82.5162 90.0016 81.7736 97.5416 83.2206 104.816C84.6675 112.09 88.239 118.772 93.4835 124.017C98.728 129.261 105.41 132.833 112.684 134.279C119.958 135.726 127.498 134.984 134.351 132.145C141.203 129.307 147.06 124.501 151.18 118.334C155.301 112.167 157.5 104.917 157.5 97.5C157.5 87.5544 153.549 78.0161 146.517 70.9835C139.484 63.9509 129.946 60 120 60Z" fill="#7F1E1D"/>
<path d="M120 15C99.233 15 78.9323 21.1581 61.6652 32.6957C44.398 44.2332 30.9399 60.632 22.9927 79.8182C15.0455 99.0045 12.9661 120.116 17.0176 140.484C21.069 160.852 31.0693 179.562 45.7538 194.246C60.4383 208.931 79.1476 218.931 99.5156 222.982C119.884 227.034 140.996 224.955 160.182 217.007C179.368 209.06 195.767 195.602 207.304 178.335C218.842 161.068 225 140.767 225 120C224.968 92.162 213.896 65.4733 194.211 45.7889C174.527 26.1044 147.838 15.0318 120 15V15ZM179.94 186.945C179.791 177.107 175.782 167.722 168.779 160.812C161.776 153.901 152.339 150.019 142.5 150H97.5001C87.6614 150.019 78.2238 153.901 71.2207 160.812C64.2176 167.722 60.2095 177.107 60.06 186.945C46.4593 174.801 36.868 158.812 32.5563 141.095C28.2446 123.378 29.4158 104.77 35.9148 87.7339C42.4139 70.6978 53.9342 56.0375 68.9503 45.6942C83.9665 35.351 101.77 29.8127 120.004 29.8127C138.237 29.8127 156.041 35.351 171.057 45.6942C186.073 56.0375 197.594 70.6978 204.093 87.7339C210.592 104.77 211.763 123.378 207.451 141.095C203.14 158.812 193.548 174.801 179.948 186.945H179.94Z" fill="#7F1E1D"/>
</svg>
